<svg width="25" height="24" viewBox="0 0 25 24" fill="none" xmlns="http://www.w3.org/2000/svg">
<path d="M5.5 13H16.67L11.79 17.88C11.4 18.27 11.4 18.91 11.79 19.3C12.18 19.69 12.81 19.69 13.2 19.3L19.79 12.71C19.8827 12.6175 19.9563 12.5076 20.0064 12.3866C20.0566 12.2656 20.0824 12.1359 20.0824 12.005C20.0824 11.874 20.0566 11.7443 20.0064 11.6234C19.9563 11.5024 19.8827 11.3925 19.79 11.3L13.21 4.69998C13.1174 4.6074 13.0075 4.53396 12.8865 4.48385C12.7656 4.43375 12.6359 4.40796 12.505 4.40796C12.3741 4.40796 12.2444 4.43375 12.1235 4.48385C12.0025 4.53396 11.8926 4.6074 11.8 4.69998C11.7074 4.79256 11.634 4.90247 11.5839 5.02344C11.5338 5.1444 11.508 5.27405 11.508 5.40498C11.508 5.53591 11.5338 5.66556 11.5839 5.78652C11.634 5.90749 11.7074 6.0174 11.8 6.10998L16.67 11H5.5C4.95 11 4.5 11.45 4.5 12C4.5 12.55 4.95 13 5.5 13Z" fill="white"/>
</svg>
